HIERARCHY
ROOT root
{
	OFFSET	0	13.1	24.9
	CHANNELS 6  Xposition Yposition Zposition Xrotation Yrotation Zrotation
	JOINT spine_1
	{
		OFFSET	0	9.99999	0
		CHANNELS 3  Xrotation Yrotation Zrotation
		JOINT spine_2
		{
			OFFSET	0	112	-10
			CHANNELS 3  Xrotation Yrotation Zrotation
			JOINT spine_3
			{
				OFFSET	0	206.5	19.3
				CHANNELS 3  Xrotation Yrotation Zrotation
				JOINT spine_4
				{
					OFFSET	0	110.4	14.6
					CHANNELS 3  Xrotation Yrotation Zrotation
					JOINT neck_1
					{
						OFFSET	0	71.8	-50.3
						CHANNELS 3  Xrotation Yrotation Zrotation
						JOINT neck_2
						{
							OFFSET	0	86.2	-25.8
							CHANNELS 3  Xrotation Yrotation Zrotation
							JOINT head_ee
							{
								OFFSET	0	179.8	-8.7
								CHANNELS 3  Xrotation Yrotation Zrotation
								End Site
								{
									OFFSET	1	0	0
								}
							}
						}
					}
					JOINT left_clavicle
					{
						OFFSET	-43.2	22.4	-70.8
						CHANNELS 3  Xrotation Yrotation Zrotation
						JOINT left_shoulder
						{
							OFFSET	-93.9	-5.79999	48.7
							CHANNELS 3  Xrotation Yrotation Zrotation
							JOINT left_elbow
							{
								OFFSET	-291.4	-30.8	15.2
								CHANNELS 3  Xrotation Yrotation Zrotation
								JOINT left_lowarm_twist
								{
									OFFSET	-110.7	-3.89999	13.6
									CHANNELS 3  Xrotation Yrotation Zrotation
									JOINT left_hand
									{
										OFFSET	-110.7	-3.89999	13.6
										CHANNELS 3  Xrotation Yrotation Zrotation
										JOINT left_ee
										{
											OFFSET	-80.8	-5.10001	12.1
											CHANNELS 3  Xrotation Yrotation Zrotation
											End Site
											{
												OFFSET	1	0	0
											}
										}
									}
								}
							}
						}
					}
					JOINT right_clavicle
					{
						OFFSET	43.2	22.4	-70.8
						CHANNELS 3  Xrotation Yrotation Zrotation
						JOINT right_shoulder
						{
							OFFSET	93.9	-5.79999	48.7
							CHANNELS 3  Xrotation Yrotation Zrotation
							JOINT right_elbow
							{
								OFFSET	291.4	-30.8	15.2
								CHANNELS 3  Xrotation Yrotation Zrotation
								JOINT right_lowarm_twist
								{
									OFFSET	110.7	-3.89999	13.6
									CHANNELS 3  Xrotation Yrotation Zrotation
									JOINT right_hand
									{
										OFFSET	110.7	-3.89999	13.6
										CHANNELS 3  Xrotation Yrotation Zrotation
										JOINT right_ee
										{
											OFFSET	80.8	-5.10001	12.1
											CHANNELS 3  Xrotation Yrotation Zrotation
											End Site
											{
												OFFSET	1	0	0
											}
										}
									}
								}
							}
						}
					}
				}
			}
		}
	}
	JOINT left_hip
	{
		OFFSET	-82.8	-127.5	0.300001
		CHANNELS 3  Xrotation Yrotation Zrotation
		JOINT left_knee
		{
			OFFSET	-28.2	-396.7	2.2
			CHANNELS 3  Xrotation Yrotation Zrotation
			JOINT left_ankle
			{
				OFFSET	-11.7	-411.3	35.4
				CHANNELS 3  Xrotation Yrotation Zrotation
				JOINT left_toes
				{
					OFFSET	0	-60	-88.6
					CHANNELS 3  Xrotation Yrotation Zrotation
					JOINT left_foot_ee
					{
						OFFSET	-22.5	-16.5	-42.2
						CHANNELS 3  Xrotation Yrotation Zrotation
						End Site
						{
							OFFSET	1	0	0
						}
					}
				}
			}
		}
	}
	JOINT right_hip
	{
		OFFSET	82.8	-127.5	0.300001
		CHANNELS 3  Xrotation Yrotation Zrotation
		JOINT right_knee
		{
			OFFSET	28.2	-396.7	2.2
			CHANNELS 3  Xrotation Yrotation Zrotation
			JOINT right_ankle
			{
				OFFSET	11.7	-411.3	35.4
				CHANNELS 3  Xrotation Yrotation Zrotation
				JOINT right_toes
				{
					OFFSET	0	-60	-88.6
					CHANNELS 3  Xrotation Yrotation Zrotation
					JOINT right_foot_ee
					{
						OFFSET	22.5	-16.5	-42.2
						CHANNELS 3  Xrotation Yrotation Zrotation
						End Site
						{
							OFFSET	1	0	0
						}
					}
				}
			}
		}
	}
}
MOTION
Frames: 15
Frame Time: 0.02
1657.07 741.334 -1449.9 -22.0042 49.7132 18.0934 7.62641 0.366119 0.473896 7.62647 0.335222 0.496233 7.62923 0.295236 0.521014 7.62905 0.373815 0.46785 -18.8525 10.5735 -5.94513 -19.526 23.4706 -1.15549 -0.0 0.0 -0.0 -8.46268 24.6325 -8.63233 -27.7838 -11.2092 74.5113 0.57749 -15.9645 0.0809789 -35.6969 -2.50558 3.73479 1.73641 -7.46534 8.58539 -0.0 0.0 -0.0 11.2528 9.28895 -22.5995 -19.5523 32.3934 -55.0956 1.12683 29.1694 -0.293206 -22.9893 1.3492 -2.59171 0.226237 0.370339 -1.35616 0.0 0.0 0.0 37.5154 11.8246 -15.649 -46.1253 -0.901697 6.83353 41.0427 9.92031 -4.96624 15.061 -0.0 -0.0 -0.0 0.0 -0.0 25.7565 -0.0969187 -6.11152 -17.8171 -0.315234 -2.70502 12.8289 14.4521 1.94841 7.0813 -0.0 -0.0 0.0 0.0 0.0 
1646.22 741.38 -1454.67 -22.5753 50.4809 18.9331 7.76923 0.393544 0.269214 7.76919 0.375616 0.293711 7.77114 0.352197 0.321419 7.77122 0.398539 0.261763 -23.5583 10.0032 -2.66022 -24.3598 20.4652 2.51774 -0.0 0.0 -0.0 -9.90388 24.6303 -10.6842 -26.8527 -9.89601 77.9387 0.621747 -17.1187 0.0935803 -35.1696 -2.45271 3.6926 1.35318 -5.64951 6.74609 -0.0 0.0 -0.0 11.247 6.54784 -22.5535 -19.5156 31.7672 -54.0097 1.24955 31.7558 -0.355435 -24.0839 1.43847 -2.69988 -0.803797 -1.91379 4.53792 0.0 0.0 0.0 40.8695 10.2057 -15.1789 -42.0904 -0.605089 6.28841 36.0608 10.4312 -4.51723 17.0954 -0.0 -0.0 -0.0 0.0 -0.0 22.3057 -4.04573 -5.93972 -13.2855 -0.315196 -2.00993 16.2942 11.67 2.39255 5.62924 -0.0 -0.0 0.0 0.0 0.0 
1632.2 741.486 -1459.48 -23.1834 51.2915 19.0769 8.07846 0.418716 0.193564 8.07839 0.405551 0.219816 8.08004 0.389005 0.247922 8.0802 0.423278 0.183374 -24.8066 11.211 -2.25067 -25.8809 22.5392 3.80994 -0.0 0.0 -0.0 -11.4676 25.0155 -12.7819 -26.0348 -8.74219 80.4623 0.691133 -18.8996 0.115035 -35.3495 -2.4707 3.70705 1.08675 -4.40847 5.46052 -0.0 0.0 -0.0 11.0564 4.69521 -22.0868 -19.5909 32.0342 -53.3531 1.34096 33.5934 -0.404793 -25.0622 1.52 -2.79512 -1.07306 0.501129 7.40678 0.0 0.0 0.0 42.0964 9.29334 -14.5093 -39.797 -0.4539 5.96985 32.246 11.5109 -4.14317 18.1209 -0.0 -0.0 -0.0 0.0 -0.0 21.3877 -0.283434 -5.52556 -12.5322 -0.309861 -1.89446 14.8712 13.3316 2.22118 4.72387 -0.0 -0.0 0.0 0.0 0.0 
1610.09 738.706 -1471.34 -24.2284 53.2016 20.2326 8.23821 0.251014 0.0439045 8.23817 0.247712 0.0597883 8.23848 0.243079 0.0764728 8.23857 0.252106 0.037123 -23.8417 10.9843 -1.58748 -24.795 21.8657 4.09107 -0.0 0.0 -0.0 -12.019 24.6242 -13.7933 -26.7803 -7.52316 81.0234 0.725327 -19.7637 0.126355 -34.6404 -2.40004 3.64977 0.899504 -3.54054 4.55746 -0.0 0.0 -0.0 10.8718 2.8408 -21.6187 -19.4092 31.5802 -53.204 1.31568 33.0926 -0.390895 -25.3994 1.54848 -2.82762 -1.39773 0.264115 9.49542 0.0 0.0 0.0 41.4462 8.08326 -14.0086 -38.4352 -0.370226 5.77797 31.4081 11.6237 -4.05625 20.0824 -0.0 -0.0 -0.0 0.0 -0.0 20.133 -0.368684 -5.39593 -12.3839 -0.308632 -1.87174 16.8367 10.8892 2.45463 4.10491 -0.0 -0.0 0.0 0.0 0.0 
1588.41 731.402 -1476.28 -24.0608 54.6799 19.8779 8.53335 0.0982226 -0.0557479 8.53334 0.101571 -0.0493847 8.53326 0.104471 -0.0429106 8.53327 0.0963829 -0.0588713 -25.5559 10.0696 1.05603 -26.3351 18.9556 6.33026 -0.0 0.0 -0.0 -12.1737 24.4965 -14.0907 -27.3924 -6.66395 81.381 0.559029 -15.479 0.0759767 -34.3305 -2.36938 3.62446 0.7476 -1.59161 4.3434 -0.0 0.0 -0.0 10.5726 0.824051 -20.8884 -19.1605 31.2584 -52.598 1.41306 34.9895 -0.445412 -25.2036 1.53192 -2.80876 -1.70829 1.01358 11.9516 0.0 0.0 0.0 41.5734 6.10681 -12.4134 -40.5151 -0.49986 6.07023 33.2448 12.2375 -4.25171 21.986 -0.0 -0.0 -0.0 0.0 -0.0 21.3072 2.17895 -4.67425 -20.4059 -0.290593 -3.10143 26.5805 6.89664 3.60938 2.43465 -0.0 -0.0 0.0 0.0 0.0 
1574.14 729.131 -1476.69 -24.4671 55.5118 20.0548 8.81898 -0.0736732 -0.171251 8.819 -0.0626268 -0.175592 8.81916 -0.0523732 -0.178918 8.81912 -0.0799726 -0.168401 -26.0229 9.70465 -0.323705 -26.8158 18.8046 4.93972 -0.0 0.0 -0.0 -12.0708 24.2057 -14.0822 -27.3341 -5.61999 82.147 0.451428 -12.6055 0.0498605 -33.5769 -2.2954 3.56224 0.500033 -0.461831 3.14997 -0.0 0.0 -0.0 10.3787 1.05902 -20.4938 -19.0237 30.7801 -52.5344 1.44155 35.5285 -0.461861 -26.1267 1.61056 -2.89716 -1.59251 0.899669 11.1082 0.0 0.0 0.0 41.8921 3.86194 -11.2096 -32.306 -0.0511448 4.89248 29.8422 12.4039 -3.89418 22.6996 -0.0 -0.0 -0.0 0.0 -0.0 20.4503 1.31562 -3.20455 -22.8219 -0.251461 -3.47007 28.1276 7.78969 3.79887 1.04328 -0.0 -0.0 0.0 0.0 0.0 
1557.43 726.775 -1481.84 -24.1501 55.6322 19.9108 9.13514 -0.0317586 -0.326416 9.1352 -0.0109237 -0.327775 9.13515 0.00623164 -0.327898 9.135 -0.0456317 -0.324767 -29.1023 9.56961 1.32702 -29.9331 17.8593 6.92176 -0.0 0.0 -0.0 -12.384 24.0362 -14.6466 -27.4271 -3.91331 82.5808 0.472919 -13.1851 0.0546566 -31.1672 -2.06446 3.35687 1.17484 -1.85346 7.11539 -0.0 0.0 -0.0 10.0813 0.202211 -19.833 -19.8169 29.9978 -52.3008 1.50746 36.7481 -0.500732 -25.8392 1.58591 -2.86976 -1.98579 1.48733 14.0794 0.0 0.0 0.0 41.3092 4.55462 -9.11663 -21.9518 0.267345 3.33749 22.6334 17.6259 -3.10598 23.2886 -0.0 -0.0 -0.0 0.0 -0.0 17.9263 3.64825 -3.16885 -20.3886 -0.290816 -3.0988 30.5453 8.405 4.07478 -1.80253 0.0 0.0 0.0 0.0 0.0 
1539.22 722.037 -1484.42 -25.4171 56.2945 21.0881 9.42052 -0.147907 -0.343067 9.42058 -0.125777 -0.351783 9.42122 -0.108997 -0.357338 9.42108 -0.164063 -0.33564 -29.6046 9.52725 1.63153 -30.4342 17.6659 7.26565 -0.0 0.0 -0.0 -12.2038 23.8004 -14.4904 -26.7684 -2.93946 82.7943 0.408328 -11.4354 0.0408839 -30.2545 -1.97928 3.2766 0.8075 1.24071 5.90698 -0.0 0.0 -0.0 9.90075 -1.45348 -19.3751 -18.9197 29.5487 -52.8282 1.49345 36.4921 -0.492376 -25.3817 1.54698 -2.82592 -1.91751 1.09207 13.4245 0.0 0.0 0.0 40.7106 4.34494 -8.27835 -16.76 0.320142 2.54291 24.417 14.4828 -3.29296 22.0258 -0.0 -0.0 -0.0 0.0 -0.0 17.5529 0.116604 -2.10025 -22.1204 -0.264425 -3.3632 31.3263 7.96053 4.14986 -3.69753 0.0 0.0 0.0 0.0 0.0 
1526.23 724.586 -1485.54 -26.2112 55.2214 21.3984 9.6228 0.0905072 -0.288597 9.62284 0.108688 -0.282253 9.62223 0.120948 -0.277221 9.62213 0.0756485 -0.292843 -29.1398 9.5653 2.07253 -29.9379 17.5924 7.61634 -0.0 0.0 -0.0 -11.8505 23.549 -14.0728 -25.5671 -2.53393 82.657 0.385578 -10.8137 0.0364944 -29.1589 -1.87875 3.17847 0.908096 2.04621 6.90598 -0.0 0.0 -0.0 9.77962 -1.63692 -19.1185 -19.3251 29.1242 -53.0839 1.51186 36.8283 -0.503369 -25.3056 1.54053 -2.81859 -1.86118 1.13372 13.056 0.0 0.0 0.0 41.3816 2.53652 -6.47148 -10.5263 0.288258 1.58746 20.8782 18.2202 -2.89366 21.9221 -0.0 -0.0 -0.0 0.0 -0.0 16.5769 -0.231568 -2.13377 -17.9605 -0.314338 -2.72701 31.5684 8.00146 4.17609 -5.6879 0.0 0.0 0.0 0.0 0.0 
1510.27 723.811 -1486.25 -23.818 54.2527 19.1719 9.38658 0.0088703 -0.321247 9.38664 0.029294 -0.320031 9.38636 0.0445949 -0.31826 9.38622 -0.0062277 -0.321309 -30.1037 9.18928 1.47127 -30.896 17.0668 6.985 -0.0 0.0 -0.0 -11.7071 23.622 -13.8173 -25.2172 -1.67876 83.4287 0.369928 -10.3845 0.0336159 -28.3437 -1.80519 3.10423 1.02406 1.87563 7.61408 -0.0 0.0 -0.0 9.65796 -0.846506 -18.9118 -19.7048 28.9921 -53.0106 1.56759 37.8279 -0.537162 -25.3768 1.54656 -2.82545 -1.95474 1.47369 13.8585 0.0 0.0 0.0 43.2578 3.03901 -5.41807 -4.00889 0.144174 0.598225 20.5925 15.8415 -2.83694 21.447 -0.0 -0.0 -0.0 0.0 -0.0 15.1137 0.0401547 -1.26937 -19.0557 -0.30568 -2.89482 31.3364 8.48743 4.16054 -7.16936 0.0 0.0 0.0 0.0 0.0 
1499.69 715.988 -1485.53 -26.0158 53.7734 20.724 9.41576 0.0150593 -0.211495 9.41578 0.0284868 -0.210109 9.41563 0.0384149 -0.208522 9.41557 0.00500075 -0.211972 -29.3158 9.22329 1.46754 -30.0853 17.1462 6.87008 -0.0 0.0 -0.0 -11.0435 22.9077 -13.14 -23.7986 -3.05052 83.0194 0.341583 -9.60426 0.0286965 -27.6671 -1.74493 3.04183 1.46617 3.11385 11.0784 -0.0 0.0 -0.0 9.70483 1.23945 -19.097 -18.9803 28.7447 -53.3199 1.57828 38.0168 -0.543735 -23.3952 1.38206 -2.63202 -1.74735 0.797 12.1196 0.0 0.0 0.0 45.1142 2.30519 -5.07682 -1.98346 0.0765713 0.294748 14.0602 17.3334 -1.99752 20.6205 -0.0 -0.0 -0.0 0.0 -0.0 13.664 0.598719 -1.1354 -13.7245 -0.317605 -2.07724 33.7756 7.82747 4.3995 -8.85226 0.0 0.0 0.0 0.0 0.0 
1487.44 713.681 -1489.18 -26.1762 53.3774 21.2469 9.03111 -0.0856983 -0.308928 9.03116 -0.0658668 -0.313756 9.03142 -0.0487967 -0.316859 9.03129 -0.0982261 -0.305176 -28.8488 9.1581 2.12861 -29.5608 16.7958 7.36261 -0.0 0.0 -0.0 -10.5292 22.6347 -12.4759 -22.3306 -2.75022 83.0757 0.418237 -11.7053 0.0428713 -27.0328 -1.68912 2.98269 1.76439 3.51464 13.2543 -0.0 0.0 -0.0 9.63323 3.18539 -19.0066 -18.5905 28.1791 -54.3608 1.6168 38.6888 -0.567633 -21.6248 1.24085 -2.45453 -1.99054 0.0343662 13.4338 0.0 0.0 0.0 43.6266 0.999232 -6.75334 0.554035 -0.0232103 -0.0818518 19.0199 16.4197 -2.64245 22.1794 -0.0 -0.0 -0.0 0.0 -0.0 14.0182 -0.0912804 -1.04289 -15.2847 -0.321991 -2.31656 33.4704 6.25659 4.34187 -9.92059 0.0 0.0 0.0 0.0 0.0 
1475.77 710.548 -1494.61 -25.7445 53.2198 21.0837 8.9004 -0.130462 -0.446443 8.90051 -0.10179 -0.45384 8.9011 -0.076047 -0.458856 8.90084 -0.14756 -0.441088 -28.4175 9.01096 1.62981 -29.1106 16.6928 6.73747 -0.0 0.0 -0.0 -10.565 23.7526 -12.0342 -20.3762 -5.76749 81.8372 0.453907 -12.6725 0.050403 -26.3142 -1.6267 2.91496 2.56489 4.8161 19.262 -0.0 0.0 -0.0 9.79721 3.08563 -19.3487 -19.0219 27.527 -54.6093 1.68291 39.8134 -0.609464 -20.7663 1.17438 -2.36693 -2.1402 -0.164578 14.3704 0.0 0.0 0.0 42.9187 -0.0512281 -8.1846 1.81589 -0.0790257 -0.26743 9.9079 17.3658 -1.42821 23.0416 -0.0 -0.0 -0.0 0.0 -0.0 12.747 0.676568 -1.2765 -14.9113 -0.321534 -2.25928 37.0734 9.87008 4.76047 -10.5421 0.0 0.0 0.0 0.0 0.0 
1455.44 703.139 -1494.53 -26.3314 53.0655 21.808 9.0787 -0.200474 -0.659745 9.07893 -0.158087 -0.671164 9.0803 -0.122134 -0.678628 9.07973 -0.227775 -0.650824 -25.7307 8.34308 -1.41937 -26.3313 16.6415 3.10914 -0.0 0.0 -0.0 -10.1774 23.093 -11.7434 -18.9809 -6.53779 81.9491 0.522475 -14.511 0.0665186 -25.3223 -1.54195 2.8202 2.9187 4.64478 21.6957 -0.0 0.0 -0.0 9.84248 4.78016 -19.4819 -20.3806 26.7014 -54.5317 1.60483 38.4813 -0.560169 -20.1649 1.12859 -2.30498 -2.17028 -0.504603 14.4164 0.0 0.0 0.0 42.4707 -0.805361 -7.98446 4.18888 -0.195024 -0.612973 6.71971 17.5643 -0.978812 23.7268 -0.0 -0.0 -0.0 0.0 -0.0 12.3653 2.35372 -1.21682 -16.0219 -0.321796 -2.42967 38.1878 9.02376 4.84455 -10.9685 0.0 0.0 0.0 0.0 0.0 
1433.72 696.149 -1499.55 -25.0339 53.0851 21.3496 9.06223 -0.260725 -0.74747 9.06251 -0.212635 -0.762545 9.06473 -0.171535 -0.772828 9.06402 -0.291433 -0.736041 -25.2099 8.3959 -0.711663 -25.7832 16.4704 3.71337 -0.0 0.0 -0.0 -10.1449 23.335 -11.5907 -18.1382 -7.88679 81.9665 0.563419 -15.5946 0.0771526 -24.8718 -1.504 2.77669 3.21878 5.10283 24.0187 -0.0 0.0 -0.0 9.54461 4.85603 -18.8506 -20.7897 26.7493 -54.9885 1.59488 38.3079 -0.553992 -19.4555 1.07543 -2.23129 -2.17594 -0.235594 14.5833 0.0 0.0 0.0 41.6904 -1.32145 -7.83241 2.67577 -0.119401 -0.393182 5.345 17.7532 -0.78207 25.3988 -0.0 -0.0 -0.0 0.0 -0.0 11.4618 3.5456 -1.18966 -18.1969 -0.312741 -2.76324 38.8911 10.3275 4.93702 -11.432 0.0 0.0 0.0 0.0 0.0 
